<?xml version="1.0" encoding="utf-8"?>
<!-- Generator: Adobe Illustrator 15.1.0, SVG Export Plug-In . SVG Version: 6.00 Build 0)  -->
<!DOCTYPE svg PUBLIC "-//W3C//DTD SVG 1.1//EN" "http://www.w3.org/Graphics/SVG/1.1/DTD/svg11.dtd">
<svg version="1.1" id="Calque_1" xmlns="http://www.w3.org/2000/svg" xmlns:xlink="http://www.w3.org/1999/xlink" x="0px" y="0px"
	 width="586.807px" height="174.017px" viewBox="0 222.245 586.807 174.017" enable-background="new 0 222.245 586.807 174.017"
	 xml:space="preserve">
<g>
	<path fill="#FFFFFF" d="M54.032,327.43c0,0.325-0.081,0.487-0.244,0.487c-1.245,0-2.22-0.027-2.921-0.081l-4.384-0.081
		l-4.464,0.081c-0.704,0.054-1.678,0.081-2.922,0.081c-0.162,0-0.243-0.162-0.243-0.487c0-0.325,0.081-0.487,0.243-0.487
		c1.461,0,2.542-0.148,3.247-0.446c0.703-0.297,1.177-0.824,1.42-1.583c0.243-0.757,0.365-1.948,0.365-3.571v-13.148
		c0-3.192-0.609-5.545-1.826-7.061c-1.218-1.514-3.098-2.272-5.641-2.272c-1.679,0-3.368,0.446-5.073,1.339
		c-1.704,0.893-3.26,2.124-4.667,3.693v17.449c0,1.624,0.122,2.814,0.365,3.571c0.242,0.758,0.716,1.286,1.42,1.583
		c0.703,0.298,1.786,0.446,3.247,0.446c0.162,0,0.244,0.163,0.244,0.487c0,0.324-0.082,0.487-0.244,0.487
		c-1.245,0-2.22-0.027-2.922-0.081l-4.383-0.081l-4.464,0.081c-0.704,0.054-1.678,0.081-2.922,0.081
		c-0.163,0-0.244-0.162-0.244-0.487c0-0.325,0.081-0.487,0.244-0.487c1.461,0,2.542-0.148,3.246-0.446
		c0.703-0.297,1.177-0.824,1.42-1.583c0.244-0.757,0.365-1.948,0.365-3.571v-16.07c0-1.838-0.217-3.165-0.649-3.977
		c-0.434-0.812-1.164-1.217-2.19-1.217c-0.866,0-2.327,0.406-4.384,1.217H14.91c-0.218,0-0.365-0.122-0.446-0.365
		c-0.081-0.244-0.014-0.418,0.203-0.528l9.415-4.464l0.486-0.081c0.487,0,1,0.623,1.542,1.867c0.541,1.246,0.812,2.841,0.812,4.789
		c2.056-2.38,4.099-4.139,6.127-5.275c2.028-1.136,4.125-1.705,6.29-1.705c3.029,0,5.355,0.84,6.979,2.516
		c1.624,1.678,2.436,4.139,2.436,7.386v15.907c0,1.624,0.122,2.814,0.365,3.571c0.243,0.758,0.716,1.286,1.42,1.583
		c0.703,0.298,1.786,0.446,3.246,0.446C53.951,326.943,54.032,327.105,54.032,327.43z"/>
	<path fill="#FFFFFF" d="M91.284,323.534c0.216,0,0.351,0.122,0.405,0.365c0.054,0.244-0.027,0.42-0.243,0.528l-8.359,3.977
		c-0.217,0.108-0.435,0.163-0.649,0.163c-0.704,0-1.326-0.475-1.867-1.42c-0.542-0.946-0.893-2.232-1.055-3.855l-4.221,2.759
		c-1.354,0.866-2.544,1.489-3.571,1.867c-1.029,0.378-2.11,0.568-3.247,0.568c-2.002,0-3.558-0.528-4.667-1.583
		c-1.109-1.055-1.664-2.394-1.664-4.017c0-1.624,0.649-3.03,1.948-4.221c1.299-1.189,3.436-2.326,6.412-3.409l8.927-3.328v-5.519
		c0-6.059-1.704-9.09-5.113-9.09c-1.84,0-3.233,0.609-4.18,1.826c-0.948,1.217-1.583,2.611-1.908,4.18
		c-0.162,0.974-0.46,1.773-0.893,2.395c-0.435,0.623-1.164,0.933-2.191,0.933c-0.865,0-1.528-0.244-1.987-0.73
		c-0.46-0.487-0.69-1.055-0.69-1.704c0-1.299,0.838-2.597,2.516-3.896c1.677-1.298,3.68-2.38,6.007-3.246
		c2.325-0.865,4.408-1.299,6.25-1.299c2.218,0,3.896,0.704,5.031,2.11c1.137,1.408,1.705,3.437,1.705,6.087v15.177
		c0,1.895,0.243,3.274,0.73,4.139c0.486,0.866,1.299,1.298,2.435,1.298c1.027,0,2.354-0.351,3.978-1.055L91.284,323.534
		L91.284,323.534z M79.435,322.155v-0.406v-8.685l-7.548,2.922c-1.515,0.596-2.611,1.286-3.287,2.07
		c-0.677,0.785-1.014,1.718-1.014,2.8c0,1.299,0.418,2.395,1.258,3.287c0.838,0.893,1.934,1.339,3.287,1.339
		c1.082,0,2.38-0.432,3.896-1.298L79.435,322.155z"/>
	<path fill="#FFFFFF" d="M118.878,323.697c0.215,0,0.377,0.122,0.486,0.365c0.108,0.243,0.081,0.419-0.08,0.527
		c-2.002,1.57-3.803,2.678-5.397,3.328c-1.597,0.649-3.26,0.974-4.991,0.974c-2.271,0-4.139-0.515-5.6-1.542
		c-1.461-1.027-2.191-2.731-2.191-5.113v-19.073c0-1.406-0.095-2.407-0.284-3.003c-0.189-0.595-0.555-0.987-1.096-1.177
		c-0.542-0.189-1.461-0.284-2.759-0.284c-0.217,0-0.325-0.175-0.325-0.528c0-0.351,0.108-0.527,0.325-0.527
		c2.164-0.053,3.922-0.635,5.275-1.745c1.352-1.108,2.137-2.583,2.354-4.423c0-0.163,0.216-0.244,0.649-0.244
		c0.378,0,0.567,0.081,0.567,0.244v6.006c2.705-0.053,6.465-0.325,11.281-0.812c0.107,0,0.229,0.203,0.365,0.609
		c0.134,0.406,0.203,0.852,0.203,1.339c0,0.434-0.096,0.88-0.284,1.339c-0.19,0.46-0.394,0.664-0.608,0.609
		c-2.977-0.757-6.628-1.189-10.957-1.299v20.209c0,2.219,0.555,3.869,1.664,4.951c1.108,1.083,2.691,1.623,4.748,1.623
		c2.38,0,4.545-0.757,6.493-2.272L118.878,323.697z"/>
	<path fill="#FFFFFF" d="M162.624,323.291c0.215,0,0.364,0.122,0.445,0.365c0.081,0.243,0.014,0.419-0.202,0.527l-9.496,4.464
		l-0.325,0.081c-0.542,0-1.055-0.623-1.542-1.867c-0.487-1.244-0.73-2.867-0.73-4.87v-0.325c-2.109,2.382-4.22,4.126-6.331,5.235
		c-2.11,1.109-4.301,1.664-6.573,1.664c-2.707,0-4.816-0.853-6.331-2.557c-1.517-1.705-2.273-4.18-2.273-7.426v-12.417
		c0-2.11-0.189-3.638-0.568-4.585c-0.379-0.946-1.002-1.42-1.866-1.42c-0.759,0-1.679,0.271-2.76,0.812h-0.082
		c-0.217,0-0.379-0.147-0.486-0.446c-0.109-0.297-0.056-0.473,0.163-0.528l9.009-4.058l0.324-0.081c0.163,0,0.337,0.069,0.527,0.203
		c0.189,0.136,0.284,0.284,0.284,0.446v19.397c0,6.277,2.272,9.415,6.817,9.415c1.73,0,3.49-0.446,5.274-1.339
		c1.786-0.893,3.409-2.123,4.87-3.692v-14.122c0-2.164-0.176-3.706-0.526-4.626c-0.354-0.919-0.988-1.379-1.907-1.379
		c-0.759,0-1.678,0.271-2.76,0.812h-0.081c-0.218,0-0.365-0.148-0.446-0.446c-0.081-0.297-0.014-0.473,0.203-0.528l9.009-4.058
		l0.244-0.081c0.162,0,0.337,0.069,0.527,0.203c0.188,0.136,0.283,0.284,0.283,0.446v22.725c0,1.84,0.217,3.165,0.649,3.977
		s1.163,1.218,2.191,1.218c0.919,0,2.354-0.378,4.301-1.136h0.165V323.291z"/>
	<path fill="#FFFFFF" d="M190.867,296.833c1.082,0.649,1.622,1.434,1.622,2.354c0,0.704-0.23,1.299-0.689,1.786
		c-0.46,0.487-1.124,0.73-1.988,0.73c-0.486,0-0.907-0.094-1.258-0.284c-0.353-0.189-0.771-0.473-1.258-0.852
		c-0.487-0.433-0.947-0.757-1.379-0.974c-0.435-0.215-0.947-0.325-1.542-0.325c-0.704,0-1.448,0.298-2.232,0.893
		c-0.785,0.596-2.016,1.867-3.691,3.814v17.368c0,1.624,0.202,2.814,0.607,3.571c0.406,0.758,1.149,1.286,2.232,1.583
		c1.082,0.298,2.76,0.446,5.031,0.446c0.216,0,0.325,0.163,0.325,0.487c0,0.324-0.108,0.487-0.325,0.487
		c-1.731,0-3.111-0.027-4.139-0.081l-6.006-0.081l-4.464,0.081c-0.704,0.054-1.678,0.081-2.922,0.081
		c-0.163,0-0.244-0.162-0.244-0.487c0-0.325,0.081-0.487,0.244-0.487c1.461,0,2.542-0.148,3.246-0.446
		c0.703-0.297,1.177-0.824,1.42-1.583c0.244-0.757,0.364-1.948,0.364-3.571v-16.07c0-1.838-0.217-3.165-0.648-3.977
		c-0.435-0.812-1.164-1.217-2.191-1.217c-0.865,0-2.327,0.406-4.383,1.217h-0.163c-0.217,0-0.365-0.122-0.445-0.365
		c-0.081-0.244-0.015-0.418,0.202-0.528l9.415-4.464l0.487-0.081c0.487,0,1,0.623,1.542,1.867c0.541,1.246,0.812,2.841,0.812,4.789
		v0.081c2.218-2.597,3.977-4.369,5.274-5.316c1.298-0.946,2.542-1.42,3.733-1.42C188.648,295.858,189.784,296.183,190.867,296.833z"
		/>
	<path fill="#FFFFFF" d="M206.166,326.659c-2.408-1.542-4.262-3.625-5.561-6.25c-1.298-2.624-1.947-5.479-1.947-8.562
		c0-3.517,0.852-6.505,2.557-8.968c1.704-2.461,3.896-4.301,6.574-5.519c2.678-1.217,5.396-1.826,8.156-1.826
		c3.192,0,5.979,0.785,8.359,2.354c2.38,1.57,4.207,3.639,5.479,6.208c1.271,2.571,1.906,5.29,1.906,8.157
		c0,3.355-0.785,6.29-2.354,8.806c-1.57,2.516-3.666,4.464-6.29,5.843c-2.625,1.38-5.479,2.07-8.562,2.07
		C211.346,328.972,208.573,328.201,206.166,326.659z M223.737,324.265c1.623-2.11,2.436-5.356,2.436-9.739
		c0-3.354-0.555-6.357-1.664-9.009c-1.11-2.65-2.638-4.72-4.585-6.209c-1.948-1.487-4.167-2.231-6.655-2.231
		c-2.922,0-5.182,1.055-6.776,3.165c-1.598,2.11-2.396,5.141-2.396,9.09c0,3.301,0.541,6.331,1.624,9.09
		c1.082,2.759,2.597,4.951,4.545,6.574c1.948,1.624,4.139,2.435,6.574,2.435C219.813,327.43,222.114,326.375,223.737,324.265z"/>
</g>
<g>
	<path fill="#FFFFFF" d="M321.967,326.578c-2.381-1.542-4.14-3.53-5.275-5.965c-1.136-2.435-1.704-5.004-1.704-7.71
		c0-3.462,0.865-6.479,2.598-9.049c1.73-2.569,3.963-4.545,6.695-5.925c2.731-1.38,5.531-2.07,8.4-2.07
		c2.38,0,4.558,0.475,6.533,1.42c1.975,0.947,2.962,2.124,2.962,3.531c0,0.704-0.257,1.312-0.771,1.826
		c-0.515,0.515-1.205,0.771-2.069,0.771c-1.46,0-2.651-0.893-3.57-2.678c-0.704-1.082-1.461-1.893-2.272-2.435
		c-0.812-0.541-1.977-0.812-3.489-0.812c-3.031,0-5.397,1.177-7.103,3.53c-1.705,2.354-2.557,5.506-2.557,9.455
		c0,4.545,1.137,8.278,3.409,11.2c2.271,2.922,5.681,4.383,10.226,4.383c3.3,0,6.06-0.893,8.278-2.678h0.081
		c0.163,0,0.312,0.081,0.446,0.243c0.135,0.163,0.148,0.298,0.04,0.406c-1.895,1.678-3.802,2.909-5.722,3.692
		c-1.921,0.784-4.018,1.177-6.29,1.177C327.296,328.891,324.348,328.12,321.967,326.578z"/>
	<path fill="#FFFFFF" d="M373.179,296.833c1.082,0.649,1.624,1.434,1.624,2.354c0,0.704-0.231,1.299-0.69,1.786
		c-0.46,0.487-1.123,0.73-1.988,0.73c-0.486,0-0.905-0.094-1.258-0.284c-0.353-0.189-0.771-0.473-1.258-0.852
		c-0.487-0.433-0.947-0.757-1.38-0.974c-0.434-0.215-0.947-0.325-1.542-0.325c-0.704,0-1.448,0.298-2.232,0.893
		c-0.784,0.596-2.016,1.867-3.691,3.814v17.368c0,1.624,0.203,2.814,0.607,3.571c0.406,0.758,1.149,1.286,2.232,1.583
		c1.081,0.298,2.759,0.446,5.031,0.446c0.216,0,0.325,0.163,0.325,0.487c0,0.324-0.109,0.487-0.325,0.487
		c-1.732,0-3.111-0.027-4.14-0.081l-6.006-0.081l-4.464,0.081c-0.704,0.054-1.678,0.081-2.922,0.081
		c-0.162,0-0.243-0.162-0.243-0.487c0-0.325,0.081-0.487,0.243-0.487c1.461,0,2.543-0.148,3.246-0.446
		c0.703-0.297,1.177-0.824,1.421-1.583c0.243-0.757,0.365-1.948,0.365-3.571v-16.07c0-1.838-0.217-3.165-0.649-3.977
		c-0.434-0.812-1.164-1.217-2.19-1.217c-0.866,0-2.327,0.406-4.384,1.217h-0.161c-0.218,0-0.365-0.122-0.446-0.365
		c-0.081-0.244-0.016-0.418,0.202-0.528l9.415-4.464l0.486-0.081c0.486,0,1,0.623,1.542,1.867c0.54,1.246,0.812,2.841,0.812,4.789
		v0.081c2.218-2.597,3.977-4.369,5.274-5.316c1.3-0.946,2.542-1.42,3.733-1.42C370.96,295.858,372.096,296.183,373.179,296.833z"/>
	<path fill="#FFFFFF" d="M407.185,323.372c0.162,0,0.311,0.095,0.446,0.284c0.135,0.19,0.147,0.365,0.041,0.527
		c-3.571,3.139-7.521,4.708-11.851,4.708c-3.139,0-5.816-0.73-8.035-2.191s-3.908-3.381-5.071-5.763
		c-1.164-2.38-1.745-4.923-1.745-7.629c0-3.192,0.757-6.127,2.271-8.806c1.515-2.678,3.584-4.788,6.209-6.331
		c2.623-1.542,5.505-2.313,8.645-2.313c3.028,0,5.355,0.812,6.979,2.435s2.436,3.896,2.436,6.817c0,0.758-0.068,1.298-0.202,1.623
		c-0.136,0.325-0.365,0.487-0.69,0.487l-20.128,0.081c-0.107,1.191-0.162,2.165-0.162,2.922c0,4.707,1.108,8.521,3.328,11.443
		c2.219,2.922,5.328,4.383,9.333,4.383c1.623,0,3.017-0.216,4.181-0.649c1.162-0.432,2.476-1.108,3.937-2.029L407.185,323.372
		L407.185,323.372z M389.654,299.795c-1.516,1.542-2.517,3.693-3.003,6.452l15.42-0.325c0-2.759-0.596-4.855-1.785-6.29
		c-1.19-1.433-2.813-2.15-4.869-2.15C393.089,297.482,391.168,298.253,389.654,299.795z"/>
	<path fill="#FFFFFF" d="M446.467,323.534c0.216,0,0.352,0.122,0.406,0.365c0.053,0.244-0.028,0.42-0.244,0.528l-8.359,3.977
		c-0.217,0.108-0.434,0.163-0.649,0.163c-0.702,0-1.325-0.475-1.865-1.42c-0.542-0.946-0.894-2.232-1.057-3.855l-4.22,2.759
		c-1.354,0.866-2.544,1.489-3.571,1.867s-2.109,0.568-3.246,0.568c-2.003,0-3.559-0.528-4.667-1.583
		c-1.108-1.055-1.664-2.394-1.664-4.017c0-1.624,0.649-3.03,1.948-4.221c1.298-1.189,3.437-2.326,6.411-3.409l8.928-3.328v-5.519
		c0-6.059-1.703-9.09-5.112-9.09c-1.841,0-3.233,0.609-4.181,1.826c-0.946,1.217-1.582,2.611-1.906,4.18
		c-0.162,0.974-0.461,1.773-0.894,2.395c-0.434,0.623-1.164,0.933-2.19,0.933c-0.866,0-1.529-0.244-1.988-0.73
		c-0.46-0.487-0.689-1.055-0.689-1.704c0-1.299,0.838-2.597,2.517-3.896c1.677-1.298,3.679-2.38,6.006-3.246
		c2.325-0.865,4.409-1.299,6.249-1.299c2.218,0,3.896,0.704,5.032,2.11c1.137,1.408,1.704,3.437,1.704,6.087v15.177
		c0,1.895,0.243,3.274,0.729,4.139c0.487,0.866,1.299,1.298,2.437,1.298c1.025,0,2.354-0.351,3.977-1.055L446.467,323.534
		L446.467,323.534z M434.616,322.155v-0.406v-8.685l-7.548,2.922c-1.516,0.596-2.611,1.286-3.287,2.07
		c-0.677,0.785-1.015,1.718-1.015,2.8c0,1.299,0.419,2.395,1.259,3.287c0.838,0.893,1.934,1.339,3.286,1.339
		c1.082,0,2.381-0.432,3.896-1.298L434.616,322.155z"/>
	<path fill="#FFFFFF" d="M474.062,323.697c0.216,0,0.378,0.122,0.486,0.365c0.107,0.243,0.082,0.419-0.081,0.527
		c-2.002,1.57-3.803,2.678-5.396,3.328c-1.597,0.649-3.261,0.974-4.992,0.974c-2.271,0-4.139-0.515-5.6-1.542
		c-1.461-1.027-2.191-2.731-2.191-5.113v-19.073c0-1.406-0.095-2.407-0.283-3.003c-0.19-0.595-0.557-0.987-1.097-1.177
		c-0.541-0.189-1.461-0.284-2.76-0.284c-0.217,0-0.324-0.175-0.324-0.528c0-0.351,0.107-0.527,0.324-0.527
		c2.164-0.053,3.923-0.635,5.276-1.745c1.352-1.108,2.137-2.583,2.354-4.423c0-0.163,0.215-0.244,0.649-0.244
		c0.377,0,0.566,0.081,0.566,0.244v6.006c2.705-0.053,6.466-0.325,11.281-0.812c0.108,0,0.229,0.203,0.365,0.609
		c0.135,0.406,0.203,0.852,0.203,1.339c0,0.434-0.096,0.88-0.284,1.339c-0.19,0.46-0.394,0.664-0.608,0.609
		c-2.977-0.757-6.629-1.189-10.957-1.299v20.209c0,2.219,0.556,3.869,1.664,4.951c1.108,1.083,2.691,1.623,4.748,1.623
		c2.38,0,4.545-0.757,6.493-2.272L474.062,323.697z"/>
	<path fill="#FFFFFF" d="M482.421,327.43c0-0.325,0.053-0.487,0.161-0.487c1.461,0,2.558-0.148,3.287-0.446
		c0.73-0.297,1.229-0.838,1.501-1.623c0.271-0.784,0.406-1.96,0.406-3.531v-15.177c0-1.948-0.203-3.354-0.608-4.22
		c-0.405-0.865-1.097-1.299-2.069-1.299c-0.974,0-2.191,0.379-3.652,1.136h-0.081c-0.217,0-0.379-0.134-0.486-0.406
		c-0.108-0.27-0.081-0.459,0.082-0.568l10.551-4.87l0.324-0.081c0.107,0,0.242,0.069,0.405,0.203
		c0.162,0.136,0.243,0.284,0.243,0.446c0,0.379-0.028,1.461-0.081,3.247c-0.055,1.785-0.081,3.896-0.081,6.331v15.258
		c0,1.624,0.135,2.814,0.405,3.571c0.271,0.758,0.758,1.286,1.461,1.583c0.703,0.298,1.786,0.446,3.247,0.446
		c0.162,0,0.243,0.163,0.243,0.487c0,0.324-0.081,0.487-0.243,0.487c-1.246,0-2.246-0.027-3.003-0.081l-4.383-0.081l-4.384,0.081
		c-0.759,0.054-1.785,0.081-3.084,0.081C482.474,327.917,482.421,327.755,482.421,327.43z M486.763,285.47
		c-0.623-0.595-0.935-1.433-0.935-2.516c0-1.082,0.312-1.92,0.935-2.516c0.621-0.595,1.501-0.893,2.638-0.893
		c1.082,0,1.92,0.298,2.516,0.893c0.596,0.596,0.894,1.434,0.894,2.516c0,1.083-0.298,1.921-0.894,2.516
		c-0.596,0.596-1.434,0.894-2.516,0.894C488.264,286.363,487.384,286.066,486.763,285.47z"/>
	<path fill="#FFFFFF" d="M537.608,297.076c0,0.324-0.055,0.487-0.162,0.487c-1.354,0-2.517,0.446-3.49,1.339
		s-1.895,2.422-2.76,4.586l-10.145,24.348c-0.109,0.27-0.406,0.406-0.894,0.406c-0.486,0-0.785-0.136-0.894-0.406l-11.362-24.511
		c-1.083-2.326-1.988-3.868-2.719-4.626c-0.73-0.757-1.637-1.136-2.719-1.136c-0.162,0-0.243-0.163-0.243-0.487
		c0-0.325,0.081-0.487,0.243-0.487c1.082,0,1.92,0.028,2.516,0.081l3.084,0.082l5.276-0.082c0.812-0.053,1.893-0.081,3.246-0.081
		c0.161,0,0.242,0.163,0.242,0.487c0,0.324-0.081,0.487-0.242,0.487c-3.246,0-4.87,0.649-4.87,1.948
		c0,0.379,0.107,0.785,0.324,1.217l9.901,20.939l7.629-18.585c0.378-1.027,0.568-1.812,0.568-2.354c0-1.082-0.516-1.879-1.542-2.394
		c-1.028-0.514-2.651-0.771-4.87-0.771c-0.108,0-0.162-0.163-0.162-0.487c0-0.325,0.054-0.487,0.162-0.487
		c1.461,0,2.569,0.028,3.328,0.081l4.869,0.082l2.922-0.082c0.54-0.053,1.406-0.081,2.598-0.081
		C537.554,296.589,537.608,296.751,537.608,297.076z"/>
	<path fill="#FFFFFF" d="M568.854,323.372c0.162,0,0.311,0.095,0.446,0.284c0.135,0.19,0.147,0.365,0.041,0.527
		c-3.571,3.139-7.521,4.708-11.851,4.708c-3.139,0-5.816-0.73-8.035-2.191s-3.908-3.381-5.071-5.763
		c-1.164-2.38-1.745-4.923-1.745-7.629c0-3.192,0.757-6.127,2.271-8.806c1.515-2.678,3.584-4.788,6.209-6.331
		c2.623-1.542,5.506-2.313,8.645-2.313c3.029,0,5.355,0.812,6.979,2.435s2.436,3.896,2.436,6.817c0,0.758-0.068,1.298-0.202,1.623
		c-0.136,0.325-0.365,0.487-0.69,0.487l-20.128,0.081c-0.107,1.191-0.162,2.165-0.162,2.922c0,4.707,1.108,8.521,3.328,11.443
		c2.218,2.922,5.328,4.383,9.333,4.383c1.623,0,3.017-0.216,4.181-0.649c1.163-0.432,2.476-1.108,3.937-2.029L568.854,323.372
		L568.854,323.372z M551.323,299.795c-1.516,1.542-2.517,3.693-3.003,6.452l15.42-0.325c0-2.759-0.596-4.855-1.785-6.29
		c-1.19-1.433-2.813-2.15-4.869-2.15C554.759,297.482,552.838,298.253,551.323,299.795z"/>
</g>
<g>
	<path d="M-1905.391-164.982c0.046,8.164-1.232,16.118-1.137,24.288c0.091,7.806,1.155,15.428,1.982,23.185
		c0.793,7.438,2.93,15.175,5.251,22.266c1.768,5.397,3.972,10.638,6.345,15.794c1.988,4.318,2.048,4.548-1.238,8.145
		c-1.324,1.449-3.684,5.39-5.675,5.973c-1.923-3.78-2.017-8.828-3.007-12.93c-1.144-4.735-2.774-9.393-4.194-14.053
		c-3.131-8.238-7.001-16.081-10.193-24.276c-0.679-1.74-10.371-21.566-10.431-21.524c0.827-2.24-7.229-14.12-7.908-14.059
		c7.738,15.104,8.134,32.322,13.456,48.219c2.808,8.383,6.547,16.42,10.905,24.104c2.24,3.95,4.792,7.724,6.798,11.803
		c0.833,1.693,1.667,3.404,2.817,4.913c-2.066,2.631-4.17,5.23-6.278,7.829c-13.197,16.272-26.302,32.706-39.06,49.327
		c-6.032,7.858-10.982,17.036-17.927,24.122c-3.709,3.784-7.328,7.656-10.966,11.51c-3.542,3.753-9.826,8.125-12.026,12.8
		c7.055,0.985,16.348-13.6,21.017-18.234c5.99-5.946,10.905-12.275,15.989-18.966c12.388-16.3,24.813-32.565,37.298-48.737
		c5.681-7.359,11.537-14.928,17.832-21.773c2.604-2.833,6.553,0.544,9.444,1.757c5.096,2.139,10.288,4.107,15.518,5.89
		c8.901,3.033,18.134,5.36,27.497,6.326c9.224,0.951,20.005,2.652,29.237,1.771c-6.299-2.091-12.719-3.844-18.893-6.297
		c-4.905-1.95-13.474-4.088-17.279-7.762c11.778,3.415,26.353,7.011,38.661,6.004c6.026-0.493,12.22-0.299,18.159,0.879
		c5.282,1.047,11.819,4.513,17.135,4.247c-8.398-3.952-16.519-8.796-25.292-11.887c-9.093-3.203-18.675-4.798-27.894-7.597
		c-7.589-2.304-15.087-4.919-22.794-6.815c-4.434-1.091-8.928-1.942-13.467-2.445c-3.044-0.337-11.564,0.945-13.798-1.131
		c4.654-5.007,9.405-9.948,14.645-14.352c4.588,1.713,9.228,3.291,13.879,4.823c11.412,3.756,22.918,7.223,34.433,10.649
		c11.677,3.475,23.375,6.877,35.048,10.364c4.891,1.461,9.778,2.936,14.647,4.466c4.078,1.281,9.083,4.184,13.427,4.042
		c-2.946-5.463-9.826-8.758-14.909-11.866c-6.273-3.835-12.517-7.837-18.998-11.315c-9.983-5.357-21.787-8.131-32.75-10.616
		c-6.175-1.399-12.408-2.562-18.707-3.229c-3.306-0.35-6.623-0.565-9.946-0.637c-3.348-0.073-9.271,1.4-12.316-0.051
		c1.93-4.381,9.314-8.634,12.982-11.516c3.438-2.702,4.107-2.784,8.271-1.671c3.066,0.82,6.13,1.652,9.198,2.462
		c14.139,3.734,28.104,6.053,42.636,7.524c12.737,1.29,25.312,0.559,38.065-0.021c6.426-0.291,12.717-1.127,19.161-1.375
		c3.236-0.125,6.493-0.258,9.688-0.821c2.057-0.362,8.384-0.62,9.812-2.343c-21.184,0.767-42.926-4.409-63.916-6.815
		c-10.995-1.26-22.047-2.305-33.095-2.977c-5.244-0.319-10.497-0.512-15.751-0.5c-4.665,0.011-11.181,1.655-15.671,0.188
		c2.729-3.787,8.611-6.749,12.412-9.369c1.699-1.172,4.597-4.035,6.772-4.25c1.817-0.182,4.462,1.253,6.297,1.611
		c12.603,2.456,25.243,4.825,38.028,6.106c12.499,1.252,24.963,1.004,37.489,0.388c6.856-0.337,13.437-1.216,20.174-2.475
		c3.877-0.724,15.327-0.623,17.805-4.166c-8.186-1.77-17.216-0.765-25.57-1.763c-10.567-1.263-21.187-2.184-31.782-3.173
		c-9.754-0.911-19.531-1.713-29.334-1.708c-5.128,0.002-10.249,0.225-15.348,0.789c-3.589,0.396-9.771,2.573-13.219,1.316
		c3.15-2.632,7.151-4.908,10.776-6.819c4.345-2.291,10.301-1.534,15.08-2.135c10.821-1.362,21.682-2.009,32.43-3.99
		c10.103-1.862,20.02-4.742,29.453-8.828c4.609-1.996,8.972-4.445,13.47-6.667c2.107-1.041,7.348-3.807,8.04-6.123
		c-13.21-0.134-25.738,1.413-38.683,4.18c-13.742,2.937-26.635,9.144-40.251,12.076c4.045-4.835,10.196-8.513,14.844-12.82
		c5.478-5.076,10.774-10.51,15.47-16.323c4.493-5.562,8.059-11.78,12.008-17.72c1.571-2.363,13.011-15.291,11.717-17.72
		c-1.083,1.443-3.995,2.454-5.418,3.954c-2.757,2.904-5.583,5.745-8.494,8.494c2.462-3.362,6.312-6.131,8.055-9.958
		c-9.406,3.188-17.788,10.543-25.156,16.918c-8.416,7.282-16.366,14.318-23.116,23.259c-6.447,8.54-12.71,17.255-18.015,26.564
		c-2.882,5.059-4.531,7.026-9.259,10.258c-2.552,1.745-8.225,6.819-11.297,6.914c7.135-13.154,13.373-26.194,17.561-40.632
		c2.028-6.991,3.005-14.129,3.854-21.34c0.727-6.182,2.981-13.119,2.75-19.306c-2.314,0.206-5.203,6.521-6.4,8.177
		c-2.394,3.309-5.054,6.362-7.219,9.835c-5.323,8.539-8.645,18.179-11.098,27.889c-2.71,10.726-3.874,21.757-5.012,32.74
		c-0.561,5.403-0.639,6.775-5.127,9.967c-2.385,1.696-8.926,8.62-11.714,8.631c6.467-16.607,12.285-32.221,15.312-49.935
		c2.92-17.088,2.334-35.159,8.998-51.26c-8.419,2.016-12.099,15.201-15.907,21.774c-6.013,10.377-9.318,23.48-11.776,35.139
		c-2.371,11.243-3.365,22.874-3.392,34.351c-0.011,4.698,2.229,13.176-1.544,16.439c-3.697,3.196-7.874,8.234-12.193,10.479
		c3.797-16.756,6.279-33.049,6.42-50.288c0.15-18.326-0.062-37.23-4.224-55.154c-2.562-0.1-8.499,25.05-9.226,28.264
		c-2.609,11.532-3.387,22.963-3.298,34.746c0.089,11.957,0.685,23.311,3.082,35.057c0.86,4.22,4.014,10.164,0.509,13.525
		c-2.541,2.438-5.031,4.927-7.48,7.457c-1.361,1.406-3.512,4.885-5.554,5.431c-1.486-2.004,0.03-8.728,0.031-11.125
		c0.002-5.452-0.243-10.862-0.997-16.265c-1.421-10.185-3.387-20.294-5.395-30.348c-3.582-17.943-6.621-38.221-17.95-53.122
		C-1907.651-182.387-1906.726-173.184-1905.391-164.982 M-1869.109-72.215c4.546,2.184,9.099,4.354,13.619,6.59
		c-6.267-0.391-12.25-3.391-18.675-3.829c-6.102-0.416-11.722,0.25-17.79,0.753c2.062-3.875,5.917-7.125,8.933-10.251
		C-1878.243-77.011-1873.752-74.446-1869.109-72.215C-1864.42-69.962-1873.66-74.401-1869.109-72.215z"/>
</g>
<g>
	<path fill="#FFFFFF" d="M254.427,278.102c1.44,1.427,2.614,3.05,4.067,4.468c1.387,1.355,2.914,2.508,4.422,3.724
		c1.445,1.169,3.18,2.153,4.834,2.99c1.259,0.639,2.565,1.171,3.891,1.661c1.105,0.409,1.159,0.439,1.212,1.648
		c0.023,0.488,0.301,1.594,0.053,2.047c-1.001-0.325-1.906-1.197-2.8-1.745c-1.034-0.63-2.138-1.162-3.207-1.731
		c-1.997-0.897-4.056-1.596-6.056-2.475c-0.425-0.186-5.613-1.967-5.615-1.948c-0.248-0.54-3.751-1.212-3.858-1.081
		c4.012,1.294,7.106,4.25,10.836,6.108c1.964,0.98,4.033,1.734,6.15,2.318c1.086,0.3,2.2,0.515,3.268,0.88
		c0.442,0.151,0.891,0.304,1.357,0.367c0.1,0.825,0.188,1.652,0.273,2.479c0.538,5.179,1.125,10.368,1.803,15.53
		c0.32,2.441,1.064,4.923,1.087,7.387c0.016,1.318,0.06,2.633,0.098,3.949c0.036,1.282-0.299,3.154,0.135,4.364
		c1.412-1.067,0.482-5.263,0.488-6.898c0.008-2.097-0.241-4.073-0.522-6.142c-0.689-5.04-1.361-10.081-2.009-15.116
		c-0.294-2.291-0.596-4.648-0.694-6.958c-0.04-0.956,1.248-1.057,1.969-1.352c1.272-0.52,2.529-1.085,3.763-1.691
		c2.097-1.031,4.128-2.245,5.941-3.72c1.79-1.454,3.982-3.049,5.45-4.826c-1.476,0.738-2.911,1.558-4.427,2.213
		c-1.205,0.52-3.086,1.649-4.4,1.671c2.67-1.469,5.861-3.398,7.849-5.738c0.971-1.145,2.094-2.2,3.347-3.036
		c1.111-0.743,2.869-1.283,3.755-2.263c-2.171,0.78-4.447,1.356-6.532,2.355c-2.161,1.035-4.124,2.438-6.234,3.566
		c-1.74,0.928-3.517,1.786-5.204,2.808c-0.972,0.587-1.908,1.227-2.794,1.937c-0.596,0.475-1.866,2.198-2.624,2.226
		c-0.063-1.698-0.097-3.401,0.051-5.095c1.107-0.505,2.2-1.043,3.286-1.592c2.665-1.345,5.297-2.758,7.922-4.178
		c2.662-1.441,5.313-2.899,7.979-4.337c1.115-0.603,2.232-1.203,3.355-1.789c0.943-0.492,2.334-0.862,3.07-1.647
		c-1.476-0.444-3.266,0.186-4.703,0.534c-1.777,0.428-3.577,0.82-5.327,1.349c-2.695,0.812-5.257,2.399-7.621,3.888
		c-1.33,0.841-2.629,1.731-3.852,2.721c-0.644,0.519-1.265,1.064-1.861,1.635c-0.599,0.575-1.382,1.875-2.172,2.156
		c-0.432-1.11,0.12-3.154,0.257-4.304c0.13-1.08,0.234-1.212,1.16-1.748c0.684-0.395,1.368-0.788,2.049-1.184
		c3.141-1.828,6.001-3.875,8.812-6.17c2.467-2.011,4.549-4.349,6.688-6.692c1.078-1.18,2.035-2.433,3.123-3.608
		c0.547-0.589,1.097-1.185,1.56-1.846c0.297-0.425,1.365-1.581,1.312-2.136c-3.588,3.857-8.317,6.767-12.428,10.033
		c-2.153,1.71-4.277,3.467-6.337,5.29c-0.979,0.867-1.936,1.756-2.855,2.68c-0.819,0.824-1.674,2.256-2.721,2.789
		c-0.187-1.146,0.326-2.7,0.534-3.829c0.094-0.503,0.099-1.516,0.443-1.937c0.286-0.351,1.004-0.563,1.39-0.822
		c2.646-1.785,5.282-3.588,7.754-5.61c2.417-1.976,4.562-4.21,6.654-6.52c1.147-1.263,2.149-2.573,3.11-3.979
		c0.553-0.808,2.583-2.803,2.396-3.861c-1.75,1.127-3.158,2.89-4.802,4.184c-2.078,1.635-4.105,3.339-6.142,5.026
		c-1.874,1.553-3.732,3.131-5.456,4.854c-0.898,0.902-1.76,1.841-2.559,2.835c-0.561,0.701-1.264,2.171-2.09,2.555
		c0.092-1.016,0.395-2.119,0.695-3.093c0.361-1.165,1.54-2.079,2.275-3.023c1.661-2.141,3.456-4.162,4.996-6.397
		c1.448-2.104,2.685-4.352,3.624-6.729c0.458-1.161,0.797-2.356,1.195-3.538c0.188-0.552,0.621-1.958,0.336-2.487
		c-2.344,2.296-4.272,4.77-6.062,7.531c-1.898,2.929-3.074,6.286-4.95,9.193c-0.138-1.561,0.295-3.287,0.354-4.86
		c0.073-1.854,0.045-3.741-0.148-5.586c-0.189-1.767-0.654-3.485-1.003-5.224c-0.14-0.69-0.402-4.972-1.057-5.171
		c0.062,0.444-0.271,1.133-0.257,1.647c0.023,0.994,0.029,1.991,0,2.986c-0.157-1.024,0.031-2.187-0.334-3.166
		c-1.094,2.213-1.274,4.977-1.446,7.392c-0.2,2.758-0.361,5.393,0.024,8.149c0.367,2.634,0.799,5.265,1.502,7.832
		c0.381,1.396,0.438,2.03,0.175,3.429c-0.141,0.755-0.246,2.644-0.77,3.2c-1.057-3.564-2.251-6.952-4.053-10.225
		c-0.873-1.584-1.953-3.011-3.072-4.425c-0.959-1.215-1.782-2.829-2.91-3.876c-0.369,0.443,0.231,2.061,0.312,2.561
		c0.159,1.002,0.23,2.007,0.459,2.998c0.564,2.436,1.675,4.712,2.948,6.849c1.409,2.359,3.145,4.503,4.874,6.632
		c0.852,1.049,1.078,1.303,0.852,2.653c-0.122,0.716-0.056,3.083-0.542,3.575c-1.784-4.053-3.504-7.819-6.084-11.465
		c-2.488-3.515-5.768-6.585-7.426-10.587c-1.122,1.834,0.547,4.796,1.03,6.62c0.769,2.879,2.488,5.764,4.105,8.245
		c1.559,2.39,3.428,4.608,5.44,6.63c0.822,0.828,2.704,1.923,2.615,3.161c-0.087,1.21,0.063,2.829-0.301,3.982
		c-2.276-3.61-4.704-6.91-7.707-9.964c-3.196-3.246-6.554-6.531-10.435-8.948c-0.469,0.433,2.908,5.895,3.344,6.586
		c1.568,2.485,3.441,4.631,5.527,6.687c2.116,2.084,4.216,3.973,6.7,5.618c0.894,0.589,2.491,1.08,2.465,2.286
		c-0.017,0.875-0.019,1.751-0.003,2.624c0.006,0.486,0.24,1.477-0.021,1.932c-0.614-0.092-1.528-1.54-1.951-1.961
		c-0.956-0.959-1.949-1.867-3.033-2.683c-2.038-1.54-4.16-2.971-6.278-4.385c-3.781-2.523-7.88-5.551-12.488-6.18
		C250.971,275.442,252.75,276.896,254.427,278.102 M277.099,288.026c1.186-0.415,2.365-0.833,3.551-1.234
		c-1.17,1.031-2.747,1.557-3.952,2.608c-1.146,0.999-2.018,2.104-2.993,3.258c-0.319-1.043-0.214-2.291-0.231-3.371
		C274.652,288.789,275.893,288.449,277.099,288.026C278.32,287.6,275.916,288.442,277.099,288.026z"/>
</g>
<g>
	<path fill="#FFFFFF" d="M84.592,367.145c0,1.629-0.556,2.882-1.667,3.759c-1.111,0.877-2.703,1.315-4.772,1.315h-1.894v6.33h-1.872
		v-16.094h4.172C82.582,362.455,84.592,364.018,84.592,367.145z M76.259,370.612h1.684c1.659,0,2.858-0.268,3.601-0.803
		c0.742-0.535,1.111-1.395,1.111-2.576c0-1.064-0.349-1.856-1.045-2.378c-0.696-0.521-1.782-0.781-3.258-0.781H76.26L76.259,370.612
		L76.259,370.612z"/>
	<path fill="#FFFFFF" d="M102.271,378.549l-2.003-5.119h-6.451l-1.98,5.119h-1.895l6.363-16.16h1.574l6.33,16.16H102.271z
		 M99.684,371.746l-1.872-4.986c-0.242-0.631-0.492-1.405-0.749-2.323c-0.161,0.705-0.393,1.479-0.692,2.323l-1.895,4.986H99.684z"
		/>
	<path fill="#FFFFFF" d="M112.485,371.856v6.693h-1.872v-16.094h4.415c1.975,0,3.434,0.378,4.375,1.134
		c0.942,0.756,1.415,1.894,1.415,3.413c0,2.128-1.079,3.566-3.235,4.315l4.37,7.232h-2.212l-3.897-6.693H112.485z M112.485,370.249
		h2.565c1.321,0,2.29-0.262,2.906-0.787c0.615-0.524,0.924-1.312,0.924-2.361c0-1.064-0.313-1.831-0.941-2.301
		c-0.628-0.47-1.635-0.705-3.021-0.705h-2.434L112.485,370.249L112.485,370.249z"/>
	<path fill="#FFFFFF" d="M157.814,378.549h-8.972v-16.094h8.972v1.662h-7.1v5.185h6.671v1.651h-6.671v5.922h7.1V378.549z"/>
	<path fill="#FFFFFF" d="M172.697,378.549l-5.46-14.267h-0.088c0.104,1.13,0.154,2.473,0.154,4.029v10.238h-1.729v-16.094h2.817
		l5.097,13.276h0.089l5.141-13.276h2.796v16.094h-1.871v-10.37c0-1.189,0.051-2.48,0.154-3.875h-0.088l-5.504,14.245H172.697z"/>
	<path fill="#FFFFFF" d="M197.244,378.549l-5.46-14.267h-0.089c0.104,1.13,0.154,2.473,0.154,4.029v10.238h-1.729v-16.094h2.817
		l5.098,13.276h0.088l5.141-13.276h2.796v16.094h-1.871v-10.37c0-1.189,0.052-2.48,0.154-3.875h-0.088l-5.504,14.245H197.244z"/>
	<path fill="#FFFFFF" d="M224.786,378.549l-2.003-5.119h-6.451l-1.981,5.119h-1.894l6.362-16.16h1.574l6.33,16.16H224.786z
		 M222.199,371.746l-1.872-4.986c-0.242-0.631-0.492-1.405-0.749-2.323c-0.161,0.705-0.394,1.479-0.693,2.323l-1.894,4.986H222.199z
		"/>
	<path fill="#FFFFFF" d="M245.7,378.549h-2.136l-8.795-13.507h-0.088c0.118,1.585,0.176,3.038,0.176,4.359v9.148h-1.729v-16.094
		h2.114l8.772,13.452h0.088c-0.015-0.198-0.047-0.834-0.099-1.91c-0.052-1.075-0.07-1.844-0.055-2.306v-9.236h1.75V378.549z"/>
	<path fill="#FFFFFF" d="M266.472,362.455v10.414c0,1.835-0.554,3.277-1.662,4.326c-1.107,1.05-2.631,1.574-4.568,1.574
		s-3.437-0.528-4.497-1.585c-1.062-1.057-1.592-2.51-1.592-4.359v-10.37h1.872v10.501c0,1.343,0.367,2.375,1.102,3.093
		c0.733,0.72,1.812,1.079,3.235,1.079c1.358,0,2.404-0.361,3.139-1.084c0.732-0.723,1.101-1.759,1.101-3.11v-10.479H266.472z"/>
	<path fill="#FFFFFF" d="M283.897,378.549h-8.972v-16.094h8.972v1.662h-7.1v5.185h6.671v1.651h-6.671v5.922h7.1V378.549
		L283.897,378.549z"/>
	<path fill="#FFFFFF" d="M291.657,378.549v-16.094h1.871v14.398h7.102v1.695L291.657,378.549L291.657,378.549z"/>
	<path fill="#FFFFFF" d="M307.552,378.549v-16.094h1.871v14.398h7.101v1.695L307.552,378.549L307.552,378.549z"/>
	<path fill="#FFFFFF" d="M332.419,378.549h-8.973v-16.094h8.973v1.662h-7.102v5.185h6.671v1.651h-6.671v5.922h7.102V378.549z"/>
	<path fill="#FFFFFF" d="M373.123,370.348c0,2.657-0.722,4.688-2.162,6.093c-1.442,1.405-3.519,2.108-6.227,2.108h-4.458v-16.094
		h4.933c2.502,0,4.446,0.693,5.834,2.081C372.43,365.922,373.123,367.86,373.123,370.348z M371.143,370.414
		c0-2.099-0.527-3.681-1.58-4.745c-1.054-1.064-2.618-1.596-4.695-1.596h-2.719v12.857h2.278c2.23,0,3.908-0.548,5.031-1.646
		C370.58,374.186,371.143,372.564,371.143,370.414z"/>
	<path fill="#FFFFFF" d="M394.875,370.48c0,2.576-0.651,4.601-1.954,6.076c-1.304,1.475-3.113,2.213-5.433,2.213
		c-2.371,0-4.2-0.725-5.488-2.174c-1.287-1.449-1.932-3.495-1.932-6.137c0-2.62,0.646-4.651,1.938-6.093
		c1.292-1.442,3.126-2.163,5.504-2.163c2.312,0,4.117,0.734,5.416,2.202C394.226,365.872,394.875,367.897,394.875,370.48z
		 M382.051,370.48c0,2.18,0.464,3.833,1.393,4.959s2.276,1.69,4.046,1.69c1.783,0,3.13-0.562,4.04-1.685
		c0.909-1.123,1.364-2.777,1.364-4.964c0-2.165-0.453-3.807-1.359-4.926c-0.905-1.119-2.247-1.679-4.022-1.679
		c-1.783,0-3.14,0.563-4.067,1.69S382.051,368.33,382.051,370.48z"/>
	<path fill="#FFFFFF" d="M409.779,378.549l-5.46-14.267h-0.088c0.104,1.13,0.153,2.473,0.153,4.029v10.238h-1.729v-16.094h2.817
		l5.098,13.276h0.088l5.142-13.276h2.796v16.094h-1.871v-10.37c0-1.189,0.051-2.48,0.154-3.875h-0.09l-5.504,14.245H409.779z"/>
	<path fill="#FFFFFF" d="M427.203,378.549v-16.094h1.871v16.094H427.203z"/>
	<path fill="#FFFFFF" d="M450.254,378.549h-2.137l-8.796-13.507h-0.088c0.117,1.585,0.176,3.038,0.176,4.359v9.148h-1.728v-16.094
		h2.113l8.772,13.452h0.088c-0.015-0.198-0.048-0.834-0.099-1.91c-0.052-1.075-0.07-1.844-0.056-2.306v-9.236h1.751v16.094H450.254z
		"/>
	<path fill="#FFFFFF" d="M458.871,378.549v-16.094h1.871v16.094H458.871z"/>
	<path fill="#FFFFFF" d="M476.24,363.897c-1.769,0-3.165,0.589-4.188,1.767c-1.023,1.178-1.535,2.791-1.535,4.838
		c0,2.106,0.493,3.733,1.48,4.882c0.985,1.149,2.394,1.723,4.222,1.723c1.122,0,2.403-0.202,3.842-0.605v1.64
		c-1.116,0.418-2.492,0.627-4.128,0.627c-2.371,0-4.2-0.719-5.488-2.158c-1.288-1.438-1.932-3.482-1.932-6.131
		c0-1.659,0.31-3.112,0.931-4.359c0.619-1.248,1.516-2.209,2.687-2.884c1.171-0.675,2.549-1.013,4.134-1.013
		c1.688,0,3.163,0.309,4.425,0.925l-0.792,1.607C478.678,364.183,477.459,363.897,476.24,363.897z"/>
	<path fill="#FFFFFF" d="M487.767,378.549v-16.094h1.871v16.094H487.767z"/>
</g>
</svg>
